<?xml version="1.0" encoding="UTF-8" standalone="no"?>
<!-- Created with Inkscape (http://www.inkscape.org/) -->

<svg
   width="256mm"
   height="256mm"
   viewBox="0 0 256 256"
   version="1.1"
   id="svg1"
   inkscape:version="1.4.3 (0d15f75042, 2025-12-25)"
   sodipodi:docname="token.svg"
   xmlns:inkscape="http://www.inkscape.org/namespaces/inkscape"
   xmlns:sodipodi="http://sodipodi.sourceforge.net/DTD/sodipodi-0.dtd"
   xmlns="http://www.w3.org/2000/svg"
   xmlns:svg="http://www.w3.org/2000/svg">
  <sodipodi:namedview
     id="namedview1"
     pagecolor="#ffffff"
     bordercolor="#999999"
     borderopacity="1"
     inkscape:showpageshadow="2"
     inkscape:pageopacity="0"
     inkscape:pagecheckerboard="0"
     inkscape:deskcolor="#d1d1d1"
     inkscape:document-units="mm"
     inkscape:zoom="0.33362444"
     inkscape:cx="418.13483"
     inkscape:cy="373.1741"
     inkscape:window-width="1680"
     inkscape:window-height="1000"
     inkscape:window-x="0"
     inkscape:window-y="26"
     inkscape:window-maximized="1"
     inkscape:current-layer="layer1" />
  <defs
     id="defs1">
    <rect
       x="-26.976441"
       y="-29.973823"
       width="1010.1179"
       height="1094.0446"
       id="rect2" />
  </defs>
  <g
     inkscape:label="Layer 1"
     inkscape:groupmode="layer"
     id="layer1"
     style="display:inline">
    <circle
       style="fill:#d45500;stroke:#a44200;stroke-width:5;stroke-dasharray:none;stroke-opacity:1"
       id="circle1-3"
       cx="128"
       cy="128"
       r="128"
       inkscape:label="token" />
    <path
       d="m -10.528059,105.48365 v 52.24819 H 3.9853262 c 52.2481868,0 70.6318088,3.87024 79.3398398,13.54583 6.772913,10.64315 6.772913,13.54582 6.772913,73.53448 v 419.92062 c 0,59.98866 0,62.89133 -6.772913,72.56692 -8.708031,10.64315 -28.059212,14.51339 -79.3398398,14.51339 H -10.528059 v 52.24819 H 381.33334 c 100.62614,0 151.90677,-7.74048 202.21984,-29.99433 60.95622,-27.09166 101.5937,-88.04787 101.5937,-153.84189 0,-67.72913 -38.70236,-120.94487 -110.30173,-153.84188 -32.89701,-15.48095 -60.95622,-23.22142 -112.23685,-29.99433 47.41039,-7.74047 74.50205,-14.51339 101.5937,-27.09165 58.05354,-28.05922 89.01543,-74.50205 89.01543,-132.55559 0,-55.15086 -29.02677,-106.43149 -76.43716,-132.55559 -53.21575,-29.99433 -99.65858,-38.70236 -213.83055,-38.70236 z M 264.2587,418.97278 V 213.85026 c -1.93512,-40.63747 11.61071,-54.1833 54.18331,-56.11842 h 29.02677 c 85.14519,0 130.62047,42.5726 130.62047,122.88 0,47.41039 -16.44851,85.14519 -47.4104,109.33417 -26.12409,21.28629 -59.0211,29.02677 -119.00976,29.02677 z m 0,53.21574 h 66.76158 c 60.95621,0 89.01543,5.80536 116.10708,23.22142 33.86456,22.25386 53.21574,64.82645 53.21574,115.13952 0,46.44284 -17.41606,89.01543 -45.47527,112.23685 -24.18898,19.35118 -56.11842,29.02677 -102.56126,29.02677 H 323.2798 c -55.15086,-1.93512 -60.95622,-7.74047 -59.0211,-61.92378 z"
       id="text2"
       style="font-weight:bold;font-size:967.559px;font-family:C059;-inkscape-font-specification:'C059 Bold';white-space:pre;fill:#ffffff;stroke:#d40000;stroke-width:0"
       transform="matrix(0.26458333,0,0,0.26458333,40.785498,7.6748037)"
       aria-label="B" />
  </g>
</svg>
